<svg width="190" height="50" viewBox="0 0 190 50" fill="none" xmlns="http://www.w3.org/2000/svg">
<path fillRule="evenodd" clipRule="evenodd" d="M32.2114 2.63516C31.8611 2.85805 30.3001 5.56207 30.2337 6.06115C30.1827 6.4443 30.225 6.50038 31.1437 7.2665C31.8374 7.84508 31.9751 8.44107 31.601 9.24693C31.4865 9.49369 30.5599 11.1492 29.542 12.9259C28.524 14.7025 27.6138 16.3309 27.5193 16.5443C27.3103 17.0167 27.3019 17.6575 27.4907 18.7477C27.5666 19.186 27.6288 19.7395 27.6288 19.9777C27.6288 20.3569 27.5873 20.4538 27.2951 20.7563C27.0246 21.0363 26.7516 21.1774 25.8557 21.5003C24.9869 21.8135 24.6681 21.9758 24.3679 22.2578C24.0892 22.5197 23.4648 23.527 22.0601 25.9816C21.0009 27.8323 20.0086 29.5237 19.8549 29.7403C19.3055 30.5152 18.695 30.6395 17.6039 30.199C17.2372 30.0509 16.8832 29.9298 16.8173 29.9298C16.546 29.9298 16.1247 30.4501 15.4401 31.6311C14.5139 33.2283 14.3991 33.5151 14.544 33.868C14.6042 34.0144 14.7999 34.2306 14.9789 34.3486C15.9001 34.9556 18.2704 36.2543 18.794 36.4387C20.4731 37.0304 21.9246 36.6908 23.0913 35.4331C23.6598 34.8203 23.7831 34.6173 26.9117 29.1467C28.421 26.5076 29.0825 25.434 29.372 25.1537C29.5898 24.9428 30.2566 24.5057 30.854 24.1823C32.3046 23.397 32.2734 23.4559 32.2886 21.4688C32.3029 19.5953 32.1502 19.9797 34.5252 15.8421C38.4557 8.99461 38.2518 9.42361 38.2581 7.9891C38.2622 7.04594 38.2487 6.97263 37.9658 6.39288C37.627 5.69846 36.9899 5.00171 36.2157 4.47894C35.2858 3.8511 33.0127 2.56652 32.7403 2.51492C32.567 2.48208 32.3881 2.52282 32.2114 2.63516ZM17.376 13.3324C16.5057 13.4802 15.5896 14.0606 14.9315 14.8812C14.5759 15.3245 14.1235 16.0891 11.3369 20.9567C9.90423 23.4592 9.14146 24.7026 8.88723 24.9497C8.68426 25.1471 8.07152 25.5478 7.52569 25.84C5.95228 26.6824 5.9101 26.7589 5.97701 28.6472C6.00976 29.571 5.98876 29.9873 5.89435 30.2887C5.82467 30.5108 4.77199 32.4288 3.55496 34.5509C-0.0819011 40.8922 -0.00154987 40.7218 0.000407776 42.0882C0.0013866 42.8089 0.0320857 42.9613 0.286491 43.5049C0.800729 44.6041 1.54944 45.2562 3.78107 46.5492C5.63709 47.6246 5.85154 47.6827 6.27404 47.2255C6.50914 46.9711 7.92887 44.5027 8.06253 44.116C8.20481 43.7046 8.08041 43.4851 7.39897 42.9451C6.75776 42.437 6.53868 42.0654 6.54153 41.4914C6.54402 40.9849 6.64439 40.7743 8.05283 38.3195C10.4469 34.147 10.8148 33.4783 10.9131 33.121C10.9956 32.8211 10.9773 32.5318 10.8101 31.4944C10.494 29.5328 10.6029 29.2987 12.1011 28.7199C13.318 28.2498 13.7438 28.0233 14.0705 27.6721C14.2238 27.5073 15.0477 26.1409 15.9014 24.6357C18.2265 20.5359 18.472 20.1432 18.9034 19.8351C19.403 19.4782 20.0596 19.4731 20.777 19.8206C21.3673 20.1065 21.5706 20.1167 21.8747 19.8755C22.2939 19.543 23.8097 16.814 23.8223 16.3692C23.8335 15.971 23.5827 15.7675 21.8484 14.7674C20.1045 13.7618 19.3976 13.451 18.5855 13.3326C17.9063 13.2337 17.9575 13.2337 17.376 13.3324Z" fill="#8600FF"/>
<path d="M65.6421 36H61.622V21.4438H61.5024L55.6441 35.7908H52.8046L46.9463 21.4438H46.8267V36H42.8066V14.4347H48.0372L54.1646 29.7232H54.2841L60.4115 14.4347H65.6421V36ZM76.0437 22.8636C74.1308 22.8636 72.7559 24.3132 72.6064 26.3158H79.4063C79.3166 24.2684 77.9865 22.8636 76.0437 22.8636ZM79.466 31.0981H83.4712C82.993 34.2365 80.1236 36.3437 76.1633 36.3437C71.2315 36.3437 68.2724 33.1904 68.2724 28.0643C68.2724 22.9532 71.2614 19.6355 75.9989 19.6355C80.6616 19.6355 83.6057 22.7888 83.6057 27.6608V28.9909H72.5616V29.2599C72.5616 31.5465 74.0112 33.1157 76.238 33.1157C77.8371 33.1157 79.0625 32.3236 79.466 31.0981ZM87.0281 16.2879H91.392V19.9792H94.351V23.2671H91.392V30.9337C91.392 32.1592 91.9898 32.742 93.275 32.742C93.6636 32.742 94.0671 32.7122 94.3361 32.6673V35.8804C93.8877 35.9851 93.1405 36.0598 92.2588 36.0598C88.4927 36.0598 87.0281 34.8044 87.0281 31.681V23.2671H84.7714V19.9792H87.0281V16.2879ZM102.78 33.1007C104.678 33.1007 106.247 31.8603 106.247 30.1267V28.961L102.87 29.1702C101.241 29.2898 100.314 30.0221 100.314 31.1579C100.314 32.3535 101.3 33.1007 102.78 33.1007ZM101.345 36.2541C98.2964 36.2541 95.98 34.2814 95.98 31.397C95.98 28.4828 98.2217 26.794 102.212 26.5549L106.247 26.3158V25.2547C106.247 23.7602 105.201 22.8934 103.557 22.8934C101.928 22.8934 100.897 23.7005 100.688 24.8811H96.6974C96.8617 21.7726 99.507 19.6355 103.751 19.6355C107.861 19.6355 110.536 21.7576 110.536 24.9857V36H106.322V33.5491H106.232C105.335 35.2528 103.348 36.2541 101.345 36.2541ZM127.678 32.2638V36H113.734V14.4347H118.248V32.2638H127.678ZM136.166 33.1007C138.064 33.1007 139.634 31.8603 139.634 30.1267V28.961L136.256 29.1702C134.627 29.2898 133.701 30.0221 133.701 31.1579C133.701 32.3535 134.687 33.1007 136.166 33.1007ZM134.732 36.2541C131.683 36.2541 129.367 34.2814 129.367 31.397C129.367 28.4828 131.608 26.794 135.599 26.5549L139.634 26.3158V25.2547C139.634 23.7602 138.588 22.8934 136.944 22.8934C135.315 22.8934 134.283 23.7005 134.074 24.8811H130.084C130.248 21.7726 132.894 19.6355 137.138 19.6355C141.248 19.6355 143.923 21.7576 143.923 24.9857V36H139.708V33.5491H139.619C138.722 35.2528 136.734 36.2541 134.732 36.2541ZM156.267 36.2541C153.921 36.2541 152.127 35.1183 151.246 33.2502H151.156V36H146.852V14.4347H151.216V22.7589H151.306C152.187 20.861 153.966 19.7252 156.252 19.7252C160.287 19.7252 162.768 22.8187 162.768 27.9896C162.768 33.1456 160.302 36.2541 156.267 36.2541ZM154.758 23.2222C152.651 23.2222 151.201 25.1202 151.201 27.9896C151.201 30.8889 152.636 32.742 154.758 32.742C156.94 32.742 158.3 30.9188 158.3 27.9896C158.3 25.0754 156.925 23.2222 154.758 23.2222ZM164.771 24.6868C164.771 21.6381 167.416 19.6355 171.526 19.6355C175.546 19.6355 178.161 21.668 178.221 24.7765H174.201C174.111 23.4912 173.08 22.6992 171.466 22.6992C169.957 22.6992 168.97 23.3866 168.97 24.4178C168.97 25.2099 169.658 25.7479 171.062 26.0767L174.126 26.7342C177.339 27.4516 178.639 28.7219 178.639 31.1131C178.639 34.2664 175.74 36.3437 171.511 36.3437C167.237 36.3437 164.606 34.2814 164.367 31.1579H168.626C168.836 32.5029 169.897 33.2801 171.63 33.2801C173.289 33.2801 174.291 32.6225 174.291 31.5764C174.291 30.7693 173.753 30.321 172.318 29.9773L169.359 29.3197C166.325 28.6322 164.771 27.0481 164.771 24.6868Z" fill="white"/>
</svg>
